# xmcd
#
# Track frame offsets:
#	150
#	12101
#	29070
#	41261
#	53128
#	65333
#	75621
#	89829
#	105322
#	116798
#
# Disc length: 1755 seconds
#
# Revision: 1
# Processed by: cddbd v1.5.2PL0 Copyright (c) Steve Scherf et al.
# Submitted via: audiograbber 1.83.01
#
DISCID=7b06d90a
DTITLE=Mel McDaniel - Just Can't Sit Down Music
DYEAR=1986
DGENRE=Country
TTITLE0=Love Will
TTITLE1=Memphis Might as Well Be on the Moon
TTITLE2=Stand on It
TTITLE3=Lower on the Hog
TTITLE4='57 Chevy and You
TTITLE5=Just Can't Sit Down Music
TTITLE6=In Oklahoma
TTITLE7=Oh Naomi
TTITLE8=Chain Smokin'
TTITLE9=Oh What a Night
EXTD=
EXTT0=
EXTT1=
EXTT2=
EXTT3=
EXTT4=
EXTT5=
EXTT6=
EXTT7=
EXTT8=
EXTT9=
PLAYORDER=
